<?xml version="1.0" encoding="utf-8"?>
<!-- Generator: Adobe Illustrator 27.3.1, SVG Export Plug-In . SVG Version: 6.00 Build 0)  -->
<svg version="1.1" id="katman_1" xmlns="http://www.w3.org/2000/svg" xmlns:xlink="http://www.w3.org/1999/xlink" x="0px" y="0px"
	 viewBox="0 0 32 32" style="enable-background:new 0 0 32 32;" xml:space="preserve">
<style type="text/css">
	.st0{fill:url(#SVGID_1_);}
</style>
<g>
	
		<linearGradient id="SVGID_1_" gradientUnits="userSpaceOnUse" x1="26.9706" y1="27.4408" x2="5.029" y2="5.4993" gradientTransform="matrix(1 0 0 -1 2.131348e-04 31.8901)">
		<stop  offset="0" style="stop-color:#E93528"/>
		<stop  offset="1" style="stop-color:#F8BC16"/>
	</linearGradient>
	<path class="st0" d="M28.5,7.5h-25C3,7.5,2.5,7.9,2.5,8.4S3,9.4,3.5,9.4h1.9l2,18.2c0.2,2,1.9,3.4,3.8,3.4h9.5c2,0,3.6-1.5,3.8-3.4
		l2-18.2h1.9c0.5,0,0.9-0.4,0.9-0.9S29,7.5,28.5,7.5L28.5,7.5z M22.8,27.3c-0.1,1-1,1.8-2,1.8h-9.5c-1,0-1.9-0.8-2-1.8l-2-18h17.5
		L22.8,27.3z M6.4,5.3h19.2c0.5,0,0.9-0.4,0.9-0.9s-0.4-0.9-0.9-0.9h-6V2c0-0.5-0.4-0.9-0.9-0.9h-5.5c-0.5,0-0.9,0.4-0.9,0.9v1.5
		H6.4c-0.5,0-0.9,0.4-0.9,0.9S5.9,5.3,6.4,5.3z M14.1,2.9h3.7v0.6h-3.7V2.9z M12.3,24.1v-9.7c0-0.5,0.4-0.9,0.9-0.9
		c0.5,0,0.9,0.4,0.9,0.9v9.7c0,0.5-0.4,0.9-0.9,0.9C12.7,25,12.3,24.6,12.3,24.1z M17.9,24.1v-9.7c0-0.5,0.4-0.9,0.9-0.9
		s0.9,0.4,0.9,0.9v9.7c0,0.5-0.4,0.9-0.9,0.9S17.9,24.6,17.9,24.1z"/>
</g>
</svg>
