<?xml version="1.0" encoding="utf-8"?>
<!-- Generator: Adobe Illustrator 27.3.1, SVG Export Plug-In . SVG Version: 6.00 Build 0)  -->
<svg version="1.1" id="katman_1" xmlns="http://www.w3.org/2000/svg" xmlns:xlink="http://www.w3.org/1999/xlink" x="0px" y="0px"
	 viewBox="0 0 32 32" style="enable-background:new 0 0 32 32;" xml:space="preserve">
<style type="text/css">
	.st0{fill:#FFFFFF;}
</style>
<g>
	<path class="st0" d="M24.4,30H7.6c-1.8,0-3.5-0.6-4.8-1.8c-1.3-1.2-2-2.7-2-4.4v-1.6c0-0.9,0.8-1.6,1.7-1.6s1.7,0.7,1.7,1.6v1.6
		c0,0.8,0.4,1.6,1,2.2c0.6,0.6,1.5,0.9,2.4,0.9h16.8c0.9,0,1.7-0.3,2.4-0.9c0.6-0.6,1-1.4,1-2.2v-1.6c0-0.9,0.8-1.6,1.7-1.6
		s1.7,0.7,1.7,1.6v1.6c0,1.7-0.7,3.2-2,4.4C27.9,29.4,26.2,30,24.4,30L24.4,30z M16,23.8c-0.4,0-0.9-0.2-1.2-0.4l0,0l0,0l0,0
		c0,0,0,0,0,0l0,0c0,0,0,0,0,0l0,0l-6.7-6.2c-0.7-0.6-0.7-1.6,0-2.2c0.7-0.6,1.7-0.6,2.4,0l3.9,3.6V3.5C14.3,2.7,15.1,2,16,2
		c0.9,0,1.7,0.7,1.7,1.6v14.9l3.9-3.6c0.7-0.6,1.7-0.6,2.4,0c0.7,0.6,0.7,1.6,0,2.2l-6.7,6.2l0,0l0,0l0,0c0,0,0,0,0,0l0,0
		c0,0,0,0,0,0l0,0c0,0,0,0-0.1,0c-0.1,0.1-0.3,0.2-0.5,0.3l0,0c0,0,0,0,0,0C16.4,23.7,16.2,23.8,16,23.8L16,23.8z"/>
</g>
</svg>
