<?xml version="1.0" encoding="utf-8"?>
<!-- Generator: Adobe Illustrator 27.3.1, SVG Export Plug-In . SVG Version: 6.00 Build 0)  -->
<svg version="1.1" id="katman_1" xmlns="http://www.w3.org/2000/svg" xmlns:xlink="http://www.w3.org/1999/xlink" x="0px" y="0px"
	 viewBox="0 0 32 32" style="enable-background:new 0 0 32 32;" xml:space="preserve">
<style type="text/css">
	.st0{fill:url(#SVGID_1_);}
</style>
<g>
	
		<linearGradient id="SVGID_1_" gradientUnits="userSpaceOnUse" x1="-267.6423" y1="417.7162" x2="-266.5172" y2="416.591" gradientTransform="matrix(21.3333 0 0 -21.3333 5713.667 8915.3203)">
		<stop  offset="0" style="stop-color:#FCC60E"/>
		<stop  offset="0.8318" style="stop-color:#E92E29"/>
		<stop  offset="1" style="stop-color:#E92E29"/>
	</linearGradient>
	<path class="st0" d="M29.8,3.2l-1-1c-1.5-1.5-3.9-1.5-5.4,0L9.1,16.5c-0.4,0.4-0.7,0.9-0.7,1.5L8,22.1c0,0.5,0.1,1,0.5,1.4
		C8.9,23.8,9.3,24,9.8,24h0.2l4.1-0.4c0.6-0.1,1.1-0.3,1.5-0.7L29.8,8.6C31.3,7.1,31.3,4.7,29.8,3.2C29.8,3.2,29.8,3.2,29.8,3.2
		L29.8,3.2z M14,21.4c0,0-0.1,0.1-0.2,0.1l-3.6,0.3l0.3-3.6c0-0.1,0-0.2,0.1-0.2L22.2,6.4l3.4,3.4L14,21.4L14,21.4z M28.3,7.1
		l-1.2,1.2l-3.4-3.4l1.2-1.2c0.3-0.3,0.8-0.5,1.2-0.5s0.9,0.2,1.2,0.5l1,1C29,5.3,29,6.4,28.3,7.1C28.3,7.1,28.3,7.1,28.3,7.1
		L28.3,7.1z M28.1,17.7v8.1c0,2.9-2.3,5.2-5.2,5.2H6.3c-2.9,0-5.2-2.3-5.2-5.2V9.1c0-2.9,2.3-5.2,5.2-5.2h8.1c0.6,0,1,0.5,1,1
		s-0.5,1-1,1H6.3c-1.7,0-3.1,1.4-3.1,3.1v16.6c0,1.7,1.4,3.1,3.1,3.1h16.6c1.7,0,3.1-1.4,3.1-3.1v-8.1c0-0.6,0.5-1,1-1
		C27.7,16.6,28.1,17.1,28.1,17.7z"/>
</g>
</svg>
