<?xml version="1.0" encoding="utf-8"?>
<!-- Generator: Adobe Illustrator 27.3.1, SVG Export Plug-In . SVG Version: 6.00 Build 0)  -->
<svg version="1.1" id="katman_1" xmlns="http://www.w3.org/2000/svg" xmlns:xlink="http://www.w3.org/1999/xlink" x="0px" y="0px"
	 viewBox="0 0 32 32" style="enable-background:new 0 0 32 32;" xml:space="preserve">
<style type="text/css">
	.st0{fill-rule:evenodd;clip-rule:evenodd;fill:url(#SVGID_1_);}
</style>
<g>
	
		<linearGradient id="SVGID_1_" gradientUnits="userSpaceOnUse" x1="-267.0781" y1="417.7998" x2="-267.0781" y2="416.5114" gradientTransform="matrix(21.3333 0 0 -21.3333 5713.667 8915.3203)">
		<stop  offset="0" style="stop-color:#FD6700"/>
		<stop  offset="1" style="stop-color:#FFCE00"/>
	</linearGradient>
	<path class="st0" d="M9.5,2.3h13c1.2,0,2.2,0,3.1,0.1c0.9,0.1,1.6,0.2,2.4,0.6c1.1,0.6,2.1,1.5,2.7,2.7C31,6.3,31.1,7.1,31.2,8
		c0.1,0.8,0.1,1.8,0.1,3.1v9.9c0,1.2,0,2.2-0.1,3.1c-0.1,0.9-0.2,1.6-0.6,2.4c-0.6,1.1-1.5,2.1-2.7,2.7c-0.7,0.4-1.5,0.5-2.4,0.6
		c-0.8,0.1-1.8,0.1-3.1,0.1h-13c-1.2,0-2.2,0-3.1-0.1c-0.9-0.1-1.6-0.2-2.4-0.6c-1.1-0.6-2.1-1.5-2.7-2.7C1,25.7,0.9,24.9,0.8,24
		c-0.1-0.8-0.1-1.8-0.1-3.1V11c0-1.2,0-2.2,0.1-3.1C0.9,7.1,1,6.3,1.4,5.6C2,4.4,2.9,3.5,4.1,2.9c0.7-0.4,1.5-0.5,2.4-0.6
		C7.3,2.3,8.3,2.3,9.5,2.3L9.5,2.3z M6.7,5.4C6,5.4,5.7,5.5,5.4,5.6C4.9,5.9,4.4,6.4,4.1,7C4,7.2,3.9,7.6,3.8,8.2
		c-0.1,0.7-0.1,1.6-0.1,2.9v9.8c0,1.3,0,2.2,0.1,2.9c0.1,0.7,0.2,1,0.3,1.3c0.3,0.6,0.8,1,1.3,1.3c0.2,0.1,0.6,0.2,1.3,0.3
		c0.7,0.1,1.6,0.1,2.9,0.1h12.8c1.3,0,2.2,0,2.9-0.1c0.7-0.1,1-0.2,1.3-0.3c0.6-0.3,1-0.8,1.3-1.3c0.1-0.2,0.2-0.6,0.3-1.3
		c0.1-0.7,0.1-1.6,0.1-2.9v-9.8c0-1.3,0-2.2-0.1-2.9c-0.1-0.7-0.2-1-0.3-1.3c-0.3-0.6-0.8-1-1.3-1.3c-0.2-0.1-0.6-0.2-1.3-0.3
		c-0.7-0.1-1.6-0.1-2.9-0.1H9.6C8.3,5.3,7.4,5.3,6.7,5.4L6.7,5.4z M6.8,9.9c0.8,0,1.5,0.7,1.5,1.5v3.1h3.1v-3.1
		c0-0.8,0.7-1.5,1.5-1.5c0.8,0,1.5,0.7,1.5,1.5v9.2c0,0.8-0.7,1.5-1.5,1.5c-0.8,0-1.5-0.7-1.5-1.5v-3.1H8.4v3.1
		c0,0.8-0.7,1.5-1.5,1.5s-1.5-0.7-1.5-1.5v-9.2C5.3,10.6,6,9.9,6.8,9.9z M19.8,12.9v6.1h0.8c1.7,0,3.1-1.4,3.1-3.1s-1.4-3.1-3.1-3.1
		H19.8z M16.8,12.2c0-1.3,1-2.3,2.3-2.3h1.5c3.4,0,6.1,2.7,6.1,6.1s-2.7,6.1-6.1,6.1h-1.5c-1.3,0-2.3-1-2.3-2.3l0,0V12.2z"/>
</g>
</svg>
