<?xml version="1.0" encoding="utf-8"?>
<!-- Generator: Adobe Illustrator 27.3.1, SVG Export Plug-In . SVG Version: 6.00 Build 0)  -->
<svg version="1.1" id="katman_1" xmlns="http://www.w3.org/2000/svg" xmlns:xlink="http://www.w3.org/1999/xlink" x="0px" y="0px"
	 viewBox="0 0 32 32" enable-background="new 0 0 32 32" xml:space="preserve">
<g>
	
		<linearGradient id="SVGID_1_" gradientUnits="userSpaceOnUse" x1="16.0066" y1="330.1058" x2="16.0066" y2="361.0663" gradientTransform="matrix(1 0 0 1 0 -329.89)">
		<stop  offset="0" style="stop-color:#FDAE3E"/>
		<stop  offset="1" style="stop-color:#FF0749"/>
	</linearGradient>
	<path fill="url(#SVGID_1_)" d="M17.6,26.2c0.7-0.7,1.4-1.3,2.1-2c0.6-0.5,1.3-0.6,1.9-0.3c0.6,0.3,0.9,0.9,0.8,1.5
		c-0.1,0.4-0.3,0.8-0.5,1.1c-1.5,1.6-3.1,3.1-4.6,4.6c-0.7,0.7-1.7,0.7-2.4,0c-1.6-1.5-3.1-3.1-4.6-4.6c-0.7-0.7-0.7-1.8-0.1-2.4
		c0.7-0.6,1.6-0.6,2.3,0.1c0.6,0.6,1.3,1.2,2,1.9v-0.6c0-3.3,0-2,0-5.3c0-1.3,1.1-2,2.2-1.5c0.7,0.3,0.9,0.9,0.9,1.6
		c0,3.2,0,2,0,5.2L17.6,26.2z"/>
	
		<linearGradient id="SVGID_00000085956207775761020460000015697988491037773240_" gradientUnits="userSpaceOnUse" x1="16.0079" y1="330.1058" x2="16.0079" y2="361.0663" gradientTransform="matrix(1 0 0 1 0 -329.89)">
		<stop  offset="0" style="stop-color:#FDAE3E"/>
		<stop  offset="1" style="stop-color:#FF0749"/>
	</linearGradient>
	<path fill="url(#SVGID_00000085956207775761020460000015697988491037773240_)" d="M17.6,5.8v0.6c0,3.2,0,2,0,5.2
		c0,1.3-1.1,2-2.2,1.5c-0.7-0.3-0.9-0.9-0.9-1.6c0-3.2,0-2,0-5.2V5.7C14.2,5.9,14.1,6,14,6.1c-0.5,0.5-1,1.1-1.6,1.6
		c-0.7,0.7-1.7,0.7-2.3,0.1c-0.6-0.6-0.7-1.7,0-2.3c1.6-1.6,3.1-3.1,4.7-4.7c0.7-0.7,1.6-0.7,2.3,0c1.6,1.6,3.2,3.1,4.7,4.7
		c0.7,0.7,0.7,1.7,0,2.3c-0.6,0.6-1.6,0.6-2.3-0.1C18.9,7.1,18.3,6.5,17.6,5.8L17.6,5.8z"/>
	
		<linearGradient id="SVGID_00000138557344945273376310000011196124904757230998_" gradientUnits="userSpaceOnUse" x1="16" y1="330.1058" x2="16" y2="361.0663" gradientTransform="matrix(1 0 0 1 0 -329.89)">
		<stop  offset="0" style="stop-color:#FDAE3E"/>
		<stop  offset="1" style="stop-color:#FF0749"/>
	</linearGradient>
	<path fill="url(#SVGID_00000138557344945273376310000011196124904757230998_)" d="M16,14.4h10.8c1,0,1.6,1,1.3,2.2
		c-0.2,0.6-0.7,1-1.3,1c-2,0-3.9,0-5.9,0H5.3c-0.9,0-1.5-0.6-1.4-1.6c0-0.9,0.6-1.6,1.4-1.6L16,14.4z"/>
</g>
</svg>
