<?xml version="1.0" encoding="utf-8"?>
<!-- Generator: Adobe Illustrator 27.3.1, SVG Export Plug-In . SVG Version: 6.00 Build 0)  -->
<svg version="1.1" id="katman_1" xmlns="http://www.w3.org/2000/svg" xmlns:xlink="http://www.w3.org/1999/xlink" x="0px" y="0px"
	 viewBox="0 0 32 32" style="enable-background:new 0 0 32 32;" xml:space="preserve">
<g>
	<path d="M15.9,1.1C7.7,1.1,1,7.7,1,16c0,8.2,6.7,14.9,14.9,14.9c8.2,0,14.9-6.7,14.9-14.9C30.8,7.7,24.2,1.1,15.9,1.1z M15.9,27.8
		C9.4,27.8,4.1,22.5,4.1,16c0-6.6,5.3-11.9,11.9-11.9c6.6,0,11.9,5.3,11.9,11.9C27.8,22.5,22.5,27.8,15.9,27.8L15.9,27.8z"/>
	<path d="M19.7,16.4c-0.7-0.6-1.7-1.1-3.1-1.6c-1-0.3-1.7-0.6-2-1c-0.3-0.3-0.5-0.7-0.5-1.2c0-0.6,0.2-1,0.5-1.3
		c0.3-0.3,0.8-0.5,1.5-0.5c0.6,0,1.1,0.2,1.5,0.6c0.4,0.4,0.5,1,0.5,1.7c0,0.2,0.1,0.3,0.3,0.3h1.9c0.2,0,0.3-0.2,0.3-0.3
		c0-1.2-0.4-2.3-1.1-3c-0.6-0.7-1.5-1.1-2.5-1.3V7.2c0-0.2,0-0.3-0.2-0.3h-1.6C15.1,6.8,15,7,15,7.2v1.7c-1,0.2-1.9,0.6-2.5,1.2
		c-0.7,0.7-1,1.6-1,2.7c0,1.1,0.4,2,1.1,2.7c0.7,0.6,1.8,1.2,3.1,1.5c0.9,0.3,1.6,0.6,2,1c0.4,0.3,0.5,0.7,0.5,1.2
		c0,0.6-0.2,1-0.6,1.3c-0.4,0.3-1,0.5-1.8,0.5c-0.7,0-1.2-0.2-1.7-0.5c-0.4-0.3-0.6-0.9-0.6-1.7c0-0.2-0.1-0.3-0.3-0.3h-1.9
		c-0.1,0-0.2,0-0.3,0.2l0,0c0,0,0,0.1,0,0.1c0,1.3,0.3,2.4,1.1,3.1c0.7,0.6,1.6,1,2.6,1.2v1.4c0,0.2,0.2,0.3,0.4,0.3h1.6
		c0.2,0,0.3-0.1,0.3-0.3v-1.5c1.1-0.2,2-0.5,2.7-1.1c0.7-0.7,1.1-1.6,1.1-2.7C20.8,18,20.4,17.1,19.7,16.4L19.7,16.4z"/>
</g>
</svg>
