<?xml version="1.0" encoding="utf-8"?>
<!-- Generator: Adobe Illustrator 27.3.1, SVG Export Plug-In . SVG Version: 6.00 Build 0)  -->
<svg version="1.1" id="katman_1" xmlns="http://www.w3.org/2000/svg" xmlns:xlink="http://www.w3.org/1999/xlink" x="0px" y="0px"
	 viewBox="0 0 32 32" style="enable-background:new 0 0 32 32;" xml:space="preserve">
<style type="text/css">
	.st0{fill:#B1ABB5;}
	.st1{fill:#8F818F;}
	.st2{fill:#FC840D;}
	.st3{fill:#F16600;}
	.st4{fill:#E0DDE2;}
	.st5{fill:#F0F0F3;}
</style>
<g>
	<path class="st0" d="M25.2,8.4h-2.4c-0.9,0-1.7,0.7-1.7,1.7v1.1h5.7V10C26.8,9.1,26.1,8.4,25.2,8.4L25.2,8.4z"/>
	<path class="st1" d="M25.2,8.4h-1.9c0.9,0,1.7,0.7,1.7,1.7v1.1h1.9V10C26.8,9.1,26.1,8.4,25.2,8.4z"/>
	<path class="st2" d="M27.5,30.9h-23c-1.4,0-2.5-1.1-2.5-2.5V12.8c0-1.4,1.1-2.5,2.5-2.5h23c1.4,0,2.5,1.1,2.5,2.5v15.7
		C30,29.8,28.9,30.9,27.5,30.9L27.5,30.9z"/>
	<path class="st3" d="M27.5,10.3h-1.4v14.3c0,1.4-1.1,2.5-2.5,2.5H2v1.4c0,1.4,1.1,2.5,2.5,2.5h23c1.4,0,2.5-1.1,2.5-2.5V12.8
		C30,11.4,28.9,10.3,27.5,10.3L27.5,10.3z"/>
	<circle class="st4" cx="24" cy="25.3" r="3.4"/>
	<path class="st0" d="M25.9,22.4c0.4,0.5,0.6,1.2,0.6,1.9c0,1.9-1.5,3.4-3.4,3.4c-0.7,0-1.4-0.2-1.9-0.6c0.6,0.9,1.7,1.5,2.9,1.5
		c1.9,0,3.4-1.5,3.4-3.4C27.4,24.1,26.8,23,25.9,22.4L25.9,22.4z"/>
	<circle class="st0" cx="24" cy="25.3" r="1.3"/>
	<path class="st1" d="M24.4,24.1c0,0.1,0.1,0.2,0.1,0.4c0,0.7-0.6,1.3-1.3,1.3c-0.1,0-0.3,0-0.4-0.1c0.2,0.5,0.6,0.9,1.2,0.9
		c0.7,0,1.3-0.6,1.3-1.3C25.3,24.7,24.9,24.2,24.4,24.1L24.4,24.1z"/>
	<path class="st5" d="M26.4,19.4H5.6c-0.5,0-1-0.4-1-1v-3.5c0-0.5,0.4-1,1-1h20.8c0.5,0,1,0.4,1,1v3.5
		C27.4,18.9,26.9,19.4,26.4,19.4z"/>
	<path class="st4" d="M26.4,13.9H26v3.1c0,0.5-0.4,1-1,1H4.6v0.4c0,0.5,0.4,1,1,1h20.8c0.5,0,1-0.4,1-1v-3.5
		C27.4,14.4,26.9,13.9,26.4,13.9z"/>
	<circle class="st1" cx="12.3" cy="2" r="1"/>
	<path d="M27.5,9.9h-0.2c-0.1-1.1-1-1.9-2.1-1.9h-2.2l-9.3-5.5c0-0.1,0.1-0.2,0.1-0.4c0-0.8-0.6-1.4-1.4-1.4c-0.8,0-1.4,0.6-1.4,1.4
		s0.6,1.4,1.4,1.4c0.3,0,0.6-0.1,0.9-0.3l8.6,5.1c-0.6,0.3-0.9,0.9-1,1.6H4.5c-1.6,0-2.9,1.3-2.9,2.9v15.7c0,1.6,1.3,2.9,2.9,2.9
		h3.8c0.2,0,0.5-0.2,0.5-0.5s-0.2-0.5-0.5-0.5H4.5c-1.1,0-2-0.9-2-2V12.8c0-1.1,0.9-2,2-2h23c1.1,0,2,0.9,2,2v15.7c0,1.1-0.9,2-2,2
		H10.4c-0.2,0-0.5,0.2-0.5,0.5s0.2,0.5,0.5,0.5h17.1c1.6,0,2.9-1.3,2.9-2.9V12.8C30.4,11.2,29.1,9.9,27.5,9.9L27.5,9.9z M12.3,2.6
		c-0.3,0-0.5-0.2-0.5-0.5c0-0.3,0.2-0.5,0.5-0.5c0.3,0,0.5,0.2,0.5,0.5C12.8,2.3,12.6,2.6,12.3,2.6z M22.8,8.8h2.4
		c0.6,0,1.1,0.5,1.2,1h-4.8C21.7,9.3,22.2,8.8,22.8,8.8L22.8,8.8z"/>
	<path d="M21.4,23c-0.2-0.1-0.5-0.1-0.6,0.1c-0.4,0.6-0.7,1.4-0.7,2.2c0,2.1,1.7,3.9,3.9,3.9c2.1,0,3.9-1.7,3.9-3.9
		s-1.7-3.9-3.9-3.9c-0.5,0-1,0.1-1.4,0.3c-0.2,0.1-0.3,0.4-0.2,0.6c0.1,0.2,0.3,0.3,0.6,0.3c0.3-0.1,0.7-0.2,1.1-0.2
		c1.6,0,3,1.3,3,3s-1.3,3-3,3s-3-1.3-3-3c0-0.6,0.2-1.2,0.5-1.7C21.7,23.4,21.6,23.1,21.4,23C21.4,23,21.4,23,21.4,23L21.4,23z"/>
	<path d="M25.7,25.3c0-0.9-0.8-1.7-1.7-1.7c-0.9,0-1.7,0.8-1.7,1.7c0,0.9,0.8,1.7,1.7,1.7C24.9,27,25.7,26.2,25.7,25.3z M23.2,25.3
		c0-0.4,0.4-0.8,0.8-0.8c0.4,0,0.8,0.4,0.8,0.8c0,0.4-0.4,0.8-0.8,0.8C23.6,26.1,23.2,25.7,23.2,25.3z M27.8,18.4v-3.5
		c0-0.8-0.6-1.4-1.4-1.4h-8.1c-0.2,0-0.5,0.2-0.5,0.5s0.2,0.5,0.5,0.5h8.1c0.3,0,0.5,0.2,0.5,0.5v3.5c0,0.3-0.2,0.5-0.5,0.5H11v-3.2
		c0-0.2-0.2-0.5-0.5-0.5s-0.5,0.2-0.5,0.5v3.2H5.6c-0.3,0-0.5-0.2-0.5-0.5v-3.5c0-0.3,0.2-0.5,0.5-0.5h10.6c0.2,0,0.5-0.2,0.5-0.5
		s-0.2-0.5-0.5-0.5H5.6c-0.8,0-1.4,0.6-1.4,1.4v3.5c0,0.8,0.6,1.4,1.4,1.4h20.8C27.2,19.8,27.8,19.2,27.8,18.4L27.8,18.4z M4.6,24.3
		v2.5c0,0.2,0.2,0.5,0.5,0.5c0.2,0,0.5-0.2,0.5-0.5v-2.5c0-0.2-0.2-0.5-0.5-0.5C4.8,23.9,4.6,24.1,4.6,24.3z M6.9,24.3v2.5
		c0,0.2,0.2,0.5,0.5,0.5c0.2,0,0.5-0.2,0.5-0.5v-2.5c0-0.2-0.2-0.5-0.5-0.5C7.1,23.9,6.9,24.1,6.9,24.3z M10.2,26.8v-2.5
		c0-0.2-0.2-0.5-0.5-0.5s-0.5,0.2-0.5,0.5v2.5c0,0.2,0.2,0.5,0.5,0.5C10,27.3,10.2,27.1,10.2,26.8L10.2,26.8z M11.7,24.3v2.5
		c0,0.2,0.2,0.5,0.5,0.5s0.5-0.2,0.5-0.5v-2.5c0-0.2-0.2-0.5-0.5-0.5S11.7,24.1,11.7,24.3z"/>
</g>
</svg>
