<?xml version="1.0" encoding="utf-8"?>
<!-- Generator: Adobe Illustrator 27.3.1, SVG Export Plug-In . SVG Version: 6.00 Build 0)  -->
<svg version="1.1" id="katman_1" xmlns="http://www.w3.org/2000/svg" xmlns:xlink="http://www.w3.org/1999/xlink" x="0px" y="0px"
	 viewBox="0 0 32 32" style="enable-background:new 0 0 32 32;" xml:space="preserve">
<g>
	<path d="M10.6,19.4c-0.3,0.2-0.6,0.4-1.1,0.4c-0.5,0-0.9-0.1-1.4-0.4c-0.5-0.3-1-0.7-1.4-1.2l-1.5,2.4c0.6,0.6,1.3,1.1,2,1.3
		c0.7,0.3,1.5,0.4,2.3,0.4c1.4,0,2.5-0.4,3.4-1.2c0.8-0.8,1.3-1.8,1.3-3.1c0-0.5-0.1-0.9-0.2-1.4c-0.1-0.4-0.4-0.8-0.7-1.1
		c-0.4-0.4-1.3-0.8-2.6-1.2l-0.1,0c-0.6-0.2-1-0.3-1.3-0.5c-0.2-0.2-0.3-0.4-0.3-0.7c0-0.3,0.1-0.6,0.4-0.7c0.2-0.2,0.6-0.3,1-0.3
		c0.4,0,0.8,0.1,1.2,0.2c0.4,0.2,0.8,0.4,1.1,0.7l1-2.4c-0.5-0.4-1.1-0.6-1.7-0.8c-0.6-0.2-1.2-0.3-1.9-0.3c-1.2,0-2.2,0.4-3,1.1
		c-0.8,0.7-1.2,1.7-1.2,2.8c0,0.9,0.2,1.6,0.7,2.1C7,16.2,7.8,16.6,9,16.9c0.9,0.2,1.4,0.5,1.7,0.7c0.2,0.2,0.4,0.5,0.4,0.9
		C11.1,18.9,10.9,19.2,10.6,19.4L10.6,19.4z M22.5,21.8c0.7-0.2,1.4-0.5,2-0.9c0.7-0.5,1.3-1.2,1.7-2c0.4-0.8,0.6-1.8,0.6-2.8
		s-0.2-2-0.6-2.8c-0.4-0.8-1-1.5-1.7-2c-0.6-0.4-1.3-0.7-2-0.9c-0.8-0.2-2.1-0.3-4-0.3h-2.5V22H19C20.6,22,21.7,21.9,22.5,21.8
		L22.5,21.8z M19.2,12.6h0.6c1.3,0,2.2,0.3,2.8,0.8c0.6,0.5,0.9,1.4,0.9,2.5c0,1.2-0.3,2-0.9,2.5s-1.5,0.8-2.8,0.8h-0.6V12.6
		L19.2,12.6z"/>
	<path d="M30.6,6.7H1.4c-0.3,0-0.6,0.3-0.6,0.6c0,0,0,0,0,0v17.4c0,0.3,0.3,0.6,0.6,0.6h29.2c0.3,0,0.6-0.3,0.6-0.6V7.3
		C31.2,6.9,30.9,6.7,30.6,6.7z M30,24.1H2V7.9h28L30,24.1L30,24.1z"/>
</g>
</svg>
