<?xml version="1.0" encoding="utf-8"?>
<!-- Generator: Adobe Illustrator 27.3.1, SVG Export Plug-In . SVG Version: 6.00 Build 0)  -->
<svg version="1.1" id="katman_1" xmlns="http://www.w3.org/2000/svg" xmlns:xlink="http://www.w3.org/1999/xlink" x="0px" y="0px"
	 viewBox="0 0 32 32" style="enable-background:new 0 0 32 32;" xml:space="preserve">
<style type="text/css">
	.st0{fill:#3E3E3E;}
</style>
<g>
	<path class="st0" d="M16,0.9C7.7,0.9,0.9,7.7,0.9,16c0,8.3,6.8,15.1,15.1,15.1c8.3,0,15.1-6.8,15.1-15.1C31.1,7.7,24.3,0.9,16,0.9z
		 M16,29C8.8,29,3,23.2,3,16S8.8,3,16,3c7.2,0,13,5.8,13,13S23.2,29,16,29z"/>
	<path class="st0" d="M15.6,20c-0.8,0-1.5,0.7-1.5,1.5c0,0.8,0.7,1.5,1.5,1.5s1.5-0.7,1.5-1.5C17.1,20.7,16.4,20,15.6,20z M15.8,8.4
		c-2.7,0-3.9,1.6-3.9,2.7c0,0.8,0.7,1.1,1.2,1.1c1.1,0,0.6-1.5,2.7-1.5c1,0,1.8,0.4,1.8,1.4c0,1.1-1.1,1.7-1.8,2.2
		c-0.6,0.5-1.3,1.3-1.3,3c0,1,0.3,1.3,1.1,1.3c1,0,1.2-0.4,1.2-0.8c0-1,0-1.6,1.1-2.5c0.5-0.4,2.2-1.8,2.2-3.6S18.4,8.4,15.8,8.4
		L15.8,8.4z"/>
</g>
</svg>
