<?xml version="1.0" encoding="utf-8"?>
<!-- Generator: Adobe Illustrator 27.3.1, SVG Export Plug-In . SVG Version: 6.00 Build 0)  -->
<svg version="1.1" id="katman_1" xmlns="http://www.w3.org/2000/svg" xmlns:xlink="http://www.w3.org/1999/xlink" x="0px" y="0px"
	 viewBox="0 0 32 32" style="enable-background:new 0 0 32 32;" xml:space="preserve">
<style type="text/css">
	.st0{fill:#C5C9CD;}
</style>
<g>
	<path class="st0" d="M24.9,8.9c-0.1-4.7-3.9-8.4-8.5-8.4c-2.1,0-4.1,0.8-5.6,2.1C9.3,3.8,8.4,5.5,8,7.3H7.9c-4,0-7.2,3.2-7.2,7.2
		s3.2,7.2,7.2,7.2H13c0.4,0,0.7-0.3,0.7-0.7s-0.3-0.7-0.7-0.7H7.9c-3.3,0-5.9-2.7-5.9-5.9s2.7-5.9,5.9-5.9c0.2,0,0.4,0,0.6,0
		c0.3,0,0.7-0.2,0.7-0.6c0.2-1.7,1.1-3.3,2.4-4.4c1.3-1.2,3-1.8,4.8-1.8c4,0,7.2,3.2,7.2,7.2c0,0.1,0,0.3,0,0.4v0.1
		c0,0.2,0.1,0.4,0.2,0.5s0.3,0.2,0.5,0.2s0.3,0,0.5,0c2.8,0,5.1,2.3,5.1,5.1s-2.3,5.1-5.1,5.1h-5.3c-0.4,0-0.7,0.3-0.7,0.7
		s0.3,0.7,0.7,0.7h5.3c3.5,0,6.4-2.9,6.4-6.4C31.2,11.8,28.4,9,24.9,8.9L24.9,8.9z"/>
	<path class="st0" d="M20.2,14l-2.9-4.2C16.8,9,16,9,15.5,9.7L12.6,14c-0.3,0.5-0.4,1.3-0.1,1.8c0.3,0.5,0.8,0.6,1.1,0.1l1.9-2.8V29
		c0,0.7,0.4,1.3,0.8,1.3s0.8-0.6,0.8-1.3V13.1l1.9,2.8c0.1,0.2,0.3,0.3,0.5,0.3s0.4-0.2,0.6-0.4C20.5,15.3,20.5,14.4,20.2,14
		L20.2,14z"/>
</g>
</svg>
